<svg xmlns="http://www.w3.org/2000/svg" width="30" height="30" fill="currentColor" class="bi bi-file-earmark-spreadsheet"><path d="M26.25 26.25V8.437L17.812 0H6a3.75 3.75 0 0 0-3.75 3.75v22.5A3.75 3.75 0 0 0 6 30h15a3.75 3.75 0 0 0 3.75-3.75M17.812 5.625a2.813 2.813 0 0 0 2.813 2.813h3.75v8.437H5.625V3.75A1.875 1.875 0 0 1 7.5 1.875h10.313zM5.626 22.5v-3.75h3.75v3.75zm0 1.875h3.75v3.75H7.5a1.875 1.875 0 0 1-1.875-1.875zm5.625 3.75v-3.75h5.625v3.75zm7.5 0v-3.75h5.625v1.875a1.875 1.875 0 0 1-1.875 1.875zm5.625-5.625H18.75v-3.75h5.625zm-13.125 0v-3.75h5.625v3.75z"/></svg>